:SAMPLES-PER-SECOND 25
:FULLY-SPECIFIED
:DEGREES
208
root  -5.44551 65.8598 25.3545 177.293 5.73277 175.326
RightUpLeg  -19.0016 0.204192 -4.56106
RightLeg  60.0556 -2.77219 -5.6958
RightFoot  -2.97366 0.0944507 -1.52311
RightToes  2.84633e-005 7.89722e-005 -0.000426369
Spine  2.26916 0.392105 -2.40268
Spine1  4.42175 0.235873 -0.555604
HEad  18.1661 -6.77663 -6.97438
LeftShoulder1  -3.88251e-019 0 -3.92111e-022
LeftArm  -36.4651 7.23795 -82.8545
LeftForeArm  37.1143 1.81321 1.79859
LeftHand  -0.684756 -3.90452 8.81998
RightShoulder  7.45443e-017 -2.42657e-020 1.96277e-018
RightArm  -28.546 -15.9294 72.8125
RightForeArm  26.4155 5.9549 6.26982
RightHand  -1.1718 10.007 -9.19458
LeftUpLeg  -6.64021 -3.6322 -7.94318
LeftLeg  19.528 -0.985154 0.0911531
LeftFoot  -15.1645 0.317842 6.77259
LeftToes  3.91355e-005 3.11907e-005 -4.10385e-006
209
root  -5.36923 65.8957 24.5406 177.397 6.59476 176.152
RightUpLeg  -22.6799 0.585028 -3.73263
RightLeg  57.3202 -3.14276 -5.70921
RightFoot  -5.5709 0.0347874 -1.4475
RightToes  2.84633e-005 7.89722e-005 -0.000426369
Spine  2.13267 0.158731 -1.93611
Spine1  4.2435 -0.0420779 0.197522
HEad  18.1793 -6.4115 -7.04102
LeftShoulder1  -3.88251e-019 0 -3.92111e-022
LeftArm  -35.6299 4.91097 -82.5432
LeftForeArm  37.3044 1.86262 1.07859
LeftHand  -0.687975 -4.00225 8.70169
RightShoulder  7.45443e-017 -2.42657e-020 1.96277e-018
RightArm  -28.6492 -15.7214 72.8559
RightForeArm  25.9644 5.74485 5.89697
RightHand  -1.19535 9.86458 -9.45304
LeftUpLeg  -5.52511 -3.83046 -7.25201
LeftLeg  20.0095 0.0958736 0.522196
LeftFoot  -15.9305 0.387702 7.27396
LeftToes  3.91355e-005 3.11907e-005 -4.10385e-006
210
root  -5.25901 65.9736 23.7224 177.388 7.46613 177.117
RightUpLeg  -24.934 1.08307 -3.03352
RightLeg  50.5371 -4.12383 -5.68464
RightFoot  -6.16399 0.048387 -1.98915
RightToes  2.84633e-005 7.89722e-005 -0.000426369
Spine  2.07227 -0.090848 -1.19124
Spine1  4.21113 -0.33233 1.06199
HEad  17.9456 -5.56504 -7.17853
LeftShoulder1  -3.88251e-019 0 -3.92111e-022
LeftArm  -34.7389 3.08689 -82.2043
LeftForeArm  36.5477 1.98246 0.0550181
LeftHand  -0.692035 -4.06778 8.67703
RightShoulder  7.45443e-017 -2.42657e-020 1.96277e-018
RightArm  -28.7772 -15.2929 72.7455
RightForeArm  25.9215 5.02716 5.29774
RightHand  -1.14902 9.6908 -9.20097
LeftUpLeg  -3.87759 -3.92384 -6.37559
LeftLeg  19.7834 1.1353 0.931779
LeftFoot  -16.2911 0.42012 7.44117
LeftToes  3.91355e-005 3.11907e-005 -4.10385e-006
211
root  -5.10264 66.0694 22.899 177.493 8.25674 178.004
RightUpLeg  -25.6597 1.28686 -2.64048
RightLeg  40.3885 -4.25635 -4.14889
RightFoot  -5.26951 0.0579585 -1.76551
RightToes  2.84633e-005 7.89722e-005 -0.000426369
Spine  2.01056 -0.372241 -0.356253
Spine1  4.13036 -0.733045 1.76177
HEad  17.6255 -4.97247 -7.21584
LeftShoulder1  -3.88251e-019 0 -3.92111e-022
LeftArm  -33.8002 1.76821 -81.7103
LeftForeArm  35.5398 2.17645 -1.03357
LeftHand  -0.694766 -4.15994 8.71531
RightShoulder  7.45443e-017 -2.42657e-020 1.96277e-018
RightArm  -28.9581 -14.7545 72.6111
RightForeArm  26.4017 4.13248 4.61144
RightHand  -1.13327 9.66077 -9.09807
LeftUpLeg  -2.03591 -3.50638 -5.42645
LeftLeg  18.9926 1.62541 1.08454
LeftFoot  -16.5953 0.450995 7.64017
LeftToes  3.91355e-005 3.11907e-005 -4.10385e-006
212
root  -4.88752 66.1581 22.0606 178.051 8.96849 178.588
RightUpLeg  -25.368 2.23052 -2.80253
RightLeg  27.9826 -3.28996 -2.04779
RightFoot  -2.98106 0.0526378 -0.99121
RightToes  2.84633e-005 7.89722e-005 -0.000426369
Spine  1.78201 -0.613454 0.431742
Spine1  3.65157 -1.13584 2.14063
HEad  17.5525 -4.51394 -7.24895
LeftShoulder1  -3.88251e-019 0 -3.92111e-022
LeftArm  -33.1083 0.795777 -81.1591
LeftForeArm  35.0242 1.85337 -1.81853
LeftHand  -0.702079 -4.37513 8.6225
RightShoulder  7.45443e-017 -2.42657e-020 1.96277e-018
RightArm  -29.1318 -14.6582 72.5201
RightForeArm  26.9426 3.60986 4.114
RightHand  -1.16606 9.54906 -9.41421
LeftUpLeg  -0.531099 -2.65652 -4.58355
LeftLeg  17.7535 1.44071 0.954168
LeftFoot  -16.564 0.456061 7.79984
LeftToes  3.91355e-005 3.11907e-005 -4.10385e-006
213
root  -4.61933 66.2546 21.1875 178.758 9.51474 179.118
RightUpLeg  -24.0519 3.19854 -2.58162
RightLeg  15.0289 -1.47455 -1.61222
RightFoot  0.461143 0.0492281 -0.446678
RightToes  2.84633e-005 7.89722e-005 -0.000426369
Spine  1.52962 -0.835561 1.27363
Spine1  3.05658 -1.6176 2.5085
HEad  17.6505 -3.88349 -7.35574
LeftShoulder1  -3.88251e-019 0 -3.92111e-022
LeftArm  -32.8617 0.105955 -80.7489
LeftForeArm  34.8524 0.536198 -2.2712
LeftHand  -0.725105 -4.5685 8.73298
RightShoulder  7.45443e-017 -2.42657e-020 1.96277e-018
RightArm  -29.2492 -14.9787 72.4196
RightForeArm  27.1628 3.4073 3.90871
RightHand  -1.15195 9.31559 -9.44336
LeftUpLeg  1.0193 -1.95211 -3.74666
LeftLeg  16.2104 1.28598 0.86646
LeftFoot  -15.9803 0.401692 7.52649
LeftToes  3.91355e-005 3.11907e-005 -4.10385e-006
214
root  -4.26713 66.299 20.192 179.14 9.7843 179.608
RightUpLeg  -22.0897 0.977005 -0.778233
RightLeg  5.53403 2.50637 -2.61711
RightFoot  4.0456 -0.0838016 0.806625
RightToes  2.84633e-005 7.89722e-005 -0.000426369
Spine  1.38296 -1.06421 1.95527
Spine1  2.66174 -2.12321 2.87085
HEad  17.7033 -3.40926 -7.49638
LeftShoulder1  -3.88251e-019 0 -3.92111e-022
LeftArm  -32.743 -0.396958 -80.6107
LeftForeArm  34.5281 0.165746 -2.25512
LeftHand  -0.766975 -4.59504 9.19623
RightShoulder  7.45443e-017 -2.42657e-020 1.96277e-018
RightArm  -29.3403 -15.5584 72.3217
RightForeArm  26.9121 3.41306 3.87735
RightHand  -1.16044 9.27246 -9.53691
LeftUpLeg  2.7816 -1.56745 -2.92857
LeftLeg  15.4651 1.47727 0.917964
LeftFoot  -15.6731 0.357583 6.95544
LeftToes  3.91355e-005 3.11907e-005 -4.10385e-006
215
root  -3.79552 66.2845 19.0397 179.247 9.8992 179.934
RightUpLeg  -20.7079 0.907035 -0.07147
RightLeg  3.07418 2.43647 -2.75603
RightFoot  7.03463 -0.274924 1.98796
RightToes  2.84633e-005 7.89722e-005 -0.000426369
Spine  1.23223 -1.20395 2.26034
Spine1  2.31612 -2.38868 3.17406
HEad  17.9346 -3.18086 -7.76429
LeftShoulder1  -3.88251e-019 0 -3.92111e-022
LeftArm  -32.5495 -0.688942 -80.7592
LeftForeArm  34.3152 0.586578 -1.97118
LeftHand  -0.790114 -4.60096 9.45866
RightShoulder  7.45443e-017 -2.42657e-020 1.96277e-018
RightArm  -29.4679 -16.545 72.2525
RightForeArm  26.3866 3.70035 3.98118
RightHand  -1.27755 9.4024 -10.3665
LeftUpLeg  4.50732 -1.49953 -2.18407
LeftLeg  15.8067 1.64237 0.959037
LeftFoot  -15.6018 0.319833 6.08468
LeftToes  3.91355e-005 3.11907e-005 -4.10385e-006
216
root  -3.24199 66.3064 17.8244 179.3 10.1546 -179.375
RightUpLeg  -18.8218 1.56007 1.12038
RightLeg  3.06481 1.07628 -2.70514
RightFoot  9.92798 -0.229611 1.58682
RightToes  2.84633e-005 7.89722e-005 -0.000426369
Spine  1.07493 -1.24766 2.70658
Spine1  1.968 -2.43304 3.85214
HEad  18.6407 -2.62637 -8.27804
LeftShoulder1  -3.88251e-019 0 -3.92111e-022
LeftArm  -32.7687 -0.336543 -81.0976
LeftForeArm  34.5701 1.18663 -1.7872
LeftHand  -0.780531 -4.61526 9.33535
RightShoulder  7.45443e-017 -2.42657e-020 1.96277e-018
RightArm  -29.6554 -17.561 72.1701
RightForeArm  26.3731 3.82942 4.03721
RightHand  -1.37382 9.37421 -11.1348
LeftUpLeg  6.02891 -2.27616 -1.17766
LeftLeg  17.0452 2.39766 1.19153
LeftFoot  -14.8086 0.226204 4.53025
LeftToes  3.91355e-005 3.11907e-005 -4.10385e-006
217
root  -2.66914 66.3959 16.5896 179.256 10.8189 -178.06
RightUpLeg  -16.664 2.6055 3.02308
RightLeg  3.54528 0.0542861 -2.60792
RightFoot  10.3594 -0.0745988 0.759989
RightToes  2.84633e-005 7.89722e-005 -0.000426369
Spine  1.00164 -1.23767 3.47377
Spine1  1.77285 -2.3377 5.03131
HEad  19.6903 -1.55688 -9.01353
LeftShoulder1  -3.88251e-019 0 -3.92111e-022
LeftArm  -33.6528 0.92803 -81.7707
LeftForeArm  34.7287 1.57957 -1.66009
LeftHand  -0.756625 -4.45521 9.19734
RightShoulder  7.45443e-017 -2.42657e-020 1.96277e-018
RightArm  -29.8331 -17.8724 72.0715
RightForeArm  27.1017 3.28035 3.63875
RightHand  -1.36297 9.16666 -11.1991
LeftUpLeg  6.95175 -3.16294 0.255617
LeftLeg  20.1284 3.83214 1.88401
LeftFoot  -13.404 0.123551 2.36647
LeftToes  3.91355e-005 3.11907e-005 -4.10385e-006
218
root  -2.14017 66.5239 15.3975 179.271 11.8114 -176.504
RightUpLeg  -14.9161 3.47382 5.01423
RightLeg  4.76919 -0.0717729 -2.09034
RightFoot  7.87265 -0.0857983 0.836998
RightToes  2.84633e-005 7.89722e-005 -0.000426369
Spine  1.01303 -1.09858 4.39663
Spine1  1.74014 -1.94433 6.35348
HEad  20.8917 -0.568937 -9.718
LeftShoulder1  -3.88251e-019 0 -3.92111e-022
LeftArm  -34.5521 2.62011 -83.0871
LeftForeArm  34.0065 1.99996 -1.09556
LeftHand  -0.716928 -4.25712 8.8981
RightShoulder  7.45443e-017 -2.42657e-020 1.96277e-018
RightArm  -29.9143 -17.6479 72.019
RightForeArm  27.6942 2.47893 2.90439
RightHand  -1.3214 8.94239 -11.0321
LeftUpLeg  6.08449 -2.47402 2.10206
LeftLeg  26.2177 4.59025 2.78108
LeftFoot  -11.152 0.0704663 0.465652
LeftToes  3.91355e-005 3.11907e-005 -4.10385e-006
219
root  -1.64581 66.5677 14.3561 179.36 12.2121 -175.487
RightUpLeg  -13.9292 3.83007 6.39898
RightLeg  6.94233 -0.208992 -1.57844
RightFoot  4.75419 -0.0393087 0.503626
RightToes  2.84633e-005 7.89722e-005 -0.000426369
Spine  1.02879 -0.938134 5.10495
Spine1  1.72249 -1.48083 7.12284
HEad  22.182 -0.310065 -9.88375
LeftShoulder1  -3.88251e-019 0 -3.92111e-022
LeftArm  -34.8526 3.97222 -84.6822
LeftForeArm  32.8947 2.13921 -0.30061
LeftHand  -0.650149 -4.3267 8.04489
RightShoulder  7.45443e-017 -2.42657e-020 1.96277e-018
RightArm  -29.923 -17.7389 71.9999
RightForeArm  27.3522 2.53608 2.78509
RightHand  -1.27249 8.76234 -10.7672
LeftUpLeg  2.37872 -0.335582 3.7715
LeftLeg  35.9962 4.72384 4.02379
LeftFoot  -5.84152 0.0123511 0.568959
LeftToes  3.91355e-005 3.11907e-005 -4.10385e-006
